<svg width="170" height="302" viewBox="0 0 170 302" fill="none" xmlns="http://www.w3.org/2000/svg">
<path d="M126.945 0H103.113V57.4925H126.945V0Z" fill="#08385E"/>
<path d="M111.546 257.928C87.564 257.928 89.0774 265.18 89.0774 265.18V285.413H111.546H134.107V265.18C134.107 265.18 135.632 257.928 111.546 257.928Z" fill="#CFE9EC"/>
<path d="M111.592 262.524C118.125 262.524 123.421 261.729 123.421 260.749C123.421 259.769 118.125 258.975 111.592 258.975C105.059 258.975 99.7629 259.769 99.7629 260.749C99.7629 261.729 105.059 262.524 111.592 262.524Z" fill="#59A3A7"/>
<path d="M88.8232 267.439C92.6123 268.111 96.4129 268.42 100.202 268.673C104.003 268.882 107.792 269.015 111.604 268.993C115.404 269.026 119.205 268.904 122.994 268.695C126.783 268.453 130.584 268.155 134.361 267.428C130.849 269.026 127.003 269.841 123.179 270.403C119.344 270.965 115.462 271.175 111.592 271.186C107.722 271.153 103.841 270.932 100.006 270.359C96.1934 269.797 92.3466 268.993 88.8232 267.439Z" fill="#59A3A7"/>
<path d="M76.0468 287.473V253.862C76.0468 253.862 77.3176 246.368 67.1749 246.368C57.0322 246.368 41.0674 286.272 41.0674 286.272L76.0468 287.473Z" fill="#D0E3E6"/>
<path d="M169.826 282.073H11.656V301.094H169.826V282.073Z" fill="#0C3861"/>
<path d="M67.6716 259.063C69.7004 259.063 71.3451 257.494 71.3451 255.559C71.3451 253.623 69.7004 252.054 67.6716 252.054C65.6427 252.054 63.998 253.623 63.998 255.559C63.998 257.494 65.6427 259.063 67.6716 259.063Z" fill="#00636F"/>
<path d="M33.1773 186.297C44.6138 232.46 83.4747 219.721 83.4747 219.721V285.82L79.4778 287.484V251.691C79.4778 251.691 81.2221 242.985 67.198 242.985C58.6957 242.985 47.2592 260.077 39.5425 273.511C21.1171 255.46 0 223.049 0 169.59C0 74.7941 93.2824 66.573 93.2824 66.573V140.089H58.3491C58.3491 140.078 21.7986 140.078 33.1773 186.297Z" fill="#0A395E"/>
<path d="M96.4477 143.208C96.4477 143.208 95.8932 165.942 114.896 165.942C133.899 165.942 133.622 149.5 133.622 149.5L96.4477 143.208Z" fill="#0E3C64"/>
<path d="M133.622 153.445H96.4478V56.2692C96.4478 55.3655 97.2102 54.6382 98.1574 54.6382H131.924C132.871 54.6382 133.634 55.3655 133.634 56.2692V153.445H133.622Z" fill="#CDE3E8"/>
<path d="M112.158 206.662H103.206C103.021 206.662 102.871 206.519 102.871 206.342V201.35H112.505V206.342C112.493 206.519 112.343 206.662 112.158 206.662Z" fill="#163560"/>
<path d="M114.122 202.188H101.219C101.138 202.188 101.08 202.133 101.08 202.056V200.634C101.08 200.557 101.138 200.502 101.219 200.502H114.122C114.203 200.502 114.261 200.557 114.261 200.634V202.056C114.261 202.133 114.203 202.188 114.122 202.188Z" fill="#366E8F"/>
<path d="M114.769 168.642H100.572V201.339H114.769V168.642Z" fill="#163560"/>
<path d="M155.94 190.495L147.392 193.041C147.219 193.096 147.022 192.997 146.964 192.832L145.751 189.129L154.947 186.385L156.16 190.088C156.218 190.264 156.125 190.451 155.94 190.495Z" fill="#163560"/>
<path d="M156.714 186.561L144.4 190.231C144.331 190.253 144.25 190.209 144.227 190.143L143.892 189.118C143.869 189.052 143.915 188.975 143.984 188.953L156.299 185.283C156.368 185.261 156.449 185.305 156.472 185.371L156.807 186.396C156.83 186.462 156.795 186.539 156.714 186.561Z" fill="#366E8F"/>
<path d="M149.042 161.054L135.492 165.097L143.585 189.782L157.135 185.739L149.042 161.054Z" fill="#163560"/>
<path d="M130.503 192.126L123.399 192.258C123.214 192.258 123.064 192.115 123.052 191.939L122.983 188.644L130.769 188.5L130.838 191.796C130.838 191.972 130.688 192.126 130.503 192.126Z" fill="#163560"/>
<path d="M132.109 189.052L121.666 189.239C121.608 189.239 121.562 189.195 121.562 189.14L121.539 188.181C121.539 188.126 121.585 188.082 121.643 188.082L132.086 187.895C132.143 187.895 132.19 187.939 132.19 187.994L132.213 188.953C132.213 189.008 132.166 189.052 132.109 189.052Z" fill="#366E8F"/>
<path d="M132.171 166.206L120.702 166.407L121.151 188.664L132.62 188.463L132.171 166.206Z" fill="#163560"/>
<path d="M152.394 157.677C152.96 161.171 150.419 164.444 146.814 164.929L97.5798 172.026C93.9178 172.566 90.5331 170.141 89.9786 166.703L89.863 165.678L95.0961 164.929C95.2116 164.763 95.3271 164.609 95.4311 164.444C96.3322 162.989 97.6837 161.325 99.4859 161.116L140.773 155.154C142.575 154.933 144.435 156.123 145.844 157.192C146.017 157.302 146.121 157.457 146.295 157.567L152.267 156.707L152.394 157.677Z" fill="#DDF5FE"/>
<path d="M146.306 157.567L95.1077 164.929C95.2232 164.763 95.3387 164.609 95.4427 164.444L145.856 157.192C146.029 157.303 146.133 157.457 146.306 157.567Z" fill="#34768B"/>
<path d="M141.431 244.462V255.581H85.8313V244.462H92.0232V223.931H133.091V244.462H141.431Z" fill="#0A395E"/>
<path d="M133.091 241.773H92.0232V244.407H133.091V241.773Z" fill="#2B6887"/>
<path d="M74.5105 207.94H65.0378V213.428H67.5793V218.255H71.8882V213.428H74.5105V207.94Z" fill="#0A3C60"/>
<path d="M121.735 217.539V214.211L107.838 215.401L93.3864 214.211V217.539H60.5671V226.565H166.684V217.539H121.735Z" fill="#CFE9EC"/>
<path d="M75.885 217.539C75.885 217.539 76.22 210.442 89.4008 212.062C102.582 213.682 108.161 213.417 108.161 213.417" stroke="#CFE9EC" stroke-width="2" stroke-miterlimit="10"/>
<path d="M121.735 213.913H93.3865V214.398H121.735V213.913Z" fill="#CFE9EC"/>
<path d="M134.777 64.325H95.2809C95.1307 64.325 95.0037 64.2038 95.0037 64.0605V61.085C95.0037 60.9418 95.1307 60.8206 95.2809 60.8206H134.777C134.927 60.8206 135.054 60.9418 135.054 61.085V64.0605C135.054 64.2148 134.939 64.325 134.777 64.325Z" fill="#517F80"/>
<path d="M67.6023 105.706C75.169 105.706 81.303 99.8543 81.303 92.6359C81.303 85.4176 75.169 79.5659 67.6023 79.5659C60.0356 79.5659 53.9016 85.4176 53.9016 92.6359C53.9016 99.8543 60.0356 105.706 67.6023 105.706Z" stroke="#34768B" stroke-width="2" stroke-miterlimit="10"/>
<path d="M67.6023 95.6555C69.3504 95.6555 70.7675 94.3036 70.7675 92.636C70.7675 90.9683 69.3504 89.6165 67.6023 89.6165C65.8541 89.6165 64.437 90.9683 64.437 92.636C64.437 94.3036 65.8541 95.6555 67.6023 95.6555Z" fill="#B5E1F5"/>
<path d="M46.6356 119.911C47.3693 119.911 47.9641 119.344 47.9641 118.644C47.9641 117.944 47.3693 117.376 46.6356 117.376C45.9019 117.376 45.3071 117.944 45.3071 118.644C45.3071 119.344 45.9019 119.911 46.6356 119.911Z" fill="#B5E1F5"/>
<path d="M46.6355 125.046C50.3423 125.046 53.3473 122.18 53.3473 118.644C53.3473 115.108 50.3423 112.241 46.6355 112.241C42.9288 112.241 39.9238 115.108 39.9238 118.644C39.9238 122.18 42.9288 125.046 46.6355 125.046Z" stroke="#34768B" stroke-width="2" stroke-miterlimit="10"/>
</svg>
