<svg width="151" height="190" viewBox="0 0 151 190" fill="none" xmlns="http://www.w3.org/2000/svg">
<path d="M121.343 67.4222C117.062 45.3833 117.449 2.34578 76.1091 0.725924V0.71106C76.0793 0.71106 76.0496 0.725924 76.0199 0.725924C75.9455 0.725924 75.8861 0.71106 75.8118 0.71106V0.755641C34.4722 2.39035 34.3385 45.3982 30.0425 67.4371C25.7465 89.5354 12.8437 179.177 12.8437 179.177L75.5739 147.865L138.542 179.177C138.542 179.147 125.639 89.5206 121.343 67.4222Z" fill="#215985"/>
<path d="M134.796 130.686C114.639 118.083 75.6928 111.842 75.6928 111.842C75.6928 111.842 36.7317 118.098 16.5897 130.686C-3.56725 143.288 1.14495 189.104 1.14495 189.104H75.7077H150.27C150.241 189.104 154.953 143.273 134.796 130.686Z" fill="#FEFFFF"/>
<path d="M75.678 146.468C75.678 146.468 48.8169 129.17 48.8169 122.378C48.8169 115.587 56.8738 114.026 56.8738 114.026L59.5643 96.3418L75.678 101.484V146.468Z" fill="#BECFD1"/>
<path d="M75.6185 146.468C75.6185 146.468 102.48 129.17 102.48 122.378C102.48 115.587 94.4227 114.026 94.4227 114.026L91.7321 96.3418L75.6185 101.484V146.468V146.468Z" fill="white"/>
<path d="M111.339 73.2329C111.339 73.2329 111.116 78.5235 107.786 78.5235C104.516 78.5235 96.3106 108.498 75.9158 109.301V109.375H75.6928C75.6185 109.375 75.6185 109.375 75.5442 109.375H75.1131V109.301C54.8521 108.498 46.7953 78.5235 43.5399 78.5235C40.1953 78.5235 40.0615 73.2329 40.0615 73.2329C40.0615 73.2329 38.4709 63.2166 40.4926 59.8134C42.6034 56.4697 44.848 61.3441 45.5021 61.3441C45.5021 32.9744 71.1293 34.7131 75.5591 35.2184C75.6334 35.2184 75.6334 35.2184 75.7077 35.2184C80.4199 34.7131 105.765 33.1824 105.765 61.3441C106.493 61.3441 108.738 56.4845 110.849 59.8134C112.93 63.2166 111.339 73.2329 111.339 73.2329Z" fill="white"/>
<path d="M75.6928 35.2036V109.375C75.6185 109.375 75.6185 109.375 75.5442 109.375H75.1131V109.301C54.8521 108.498 46.7953 78.5235 43.5399 78.5235C40.1953 78.5235 40.0615 73.2329 40.0615 73.2329C40.0615 73.2329 38.4709 63.2166 40.4926 59.8134C42.6034 56.4697 44.848 61.3441 45.5021 61.3441C45.5021 32.9744 71.1293 34.7131 75.5591 35.2184C75.6185 35.2035 75.6185 35.2036 75.6928 35.2036Z" fill="#CEE3E9"/>
</svg>
