<svg width="467" height="623" viewBox="0 0 467 623" fill="none" xmlns="http://www.w3.org/2000/svg">
<path d="M222.441 3.40669L11.0196 126.683C4.53819 130.485 0.522522 137.385 0.522522 144.918V478.279C0.522522 485.812 4.53819 492.782 11.0901 496.584L222.441 618.664C228.993 622.466 237.095 622.466 243.647 618.664L455.843 495.317C462.325 491.515 466.341 484.615 466.341 477.082V143.791C466.341 136.258 462.325 129.288 455.773 125.487L243.647 3.33629C237.095 -0.465509 228.993 -0.395105 222.441 3.40669Z" fill="#35B4B7" stroke="white" stroke-miterlimit="10"/>
<path d="M333 197.818H133V453H333V197.818Z" fill="#003763"/>
<path d="M307.655 405.473V395.48V234.422H158.465V419.534H290.718L307.655 405.473Z" fill="white"/>
<path d="M180.568 261.614H285.432" stroke="#6D6A6A" stroke-width="0.25" stroke-miterlimit="10"/>
<path d="M180.568 278.347H285.432" stroke="#6D6A6A" stroke-width="0.25" stroke-miterlimit="10"/>
<path d="M180.568 295.08H285.432" stroke="#6D6A6A" stroke-width="0.25" stroke-miterlimit="10"/>
<path d="M180.568 311.813H285.432" stroke="#6D6A6A" stroke-width="0.25" stroke-miterlimit="10"/>
<path d="M180.568 328.547H285.432" stroke="#6D6A6A" stroke-width="0.25" stroke-miterlimit="10"/>
<path d="M180.568 345.28H285.432" stroke="#6D6A6A" stroke-width="0.25" stroke-miterlimit="10"/>
<path d="M180.568 362.013H285.432" stroke="#6D6A6A" stroke-width="0.25" stroke-miterlimit="10"/>
<path d="M180.568 378.746H285.432" stroke="#6D6A6A" stroke-width="0.25" stroke-miterlimit="10"/>
<path d="M180.568 395.48H285.432" stroke="#6D6A6A" stroke-width="0.25" stroke-miterlimit="10"/>
<path d="M307.655 405.473H290.718V419.534" fill="#8EA1B4"/>
<path d="M196.904 188.057V197.586H201.949V207.696H264.171V197.586H269.096V188.057H196.904Z" fill="#A1AAB3"/>
<path d="M210.357 198.632H256.483" stroke="#6D6A6A" stroke-width="0.25" stroke-miterlimit="10"/>
<path d="M294.682 198.632H301.649V182.828C297.805 182.828 294.682 185.849 294.682 189.568V198.632Z" fill="#6D6A6A"/>
<path d="M301.048 325.409C301.889 337.61 304.171 348.65 305.973 355.738C306.093 356.087 306.213 356.552 306.333 356.9C307.294 360.967 308.135 363.524 308.255 363.872C308.255 363.524 309.096 360.967 310.057 356.9C311.859 349.928 314.501 338.308 315.342 325.293C315.703 321.574 315.703 317.856 315.703 314.021C315.462 306.119 315.342 291.129 315.342 273.815C315.342 266.029 315.342 257.779 315.342 249.529V244.416V244.3C315.462 226.985 315.462 210.02 315.582 197.935C315.703 187.244 315.703 180.272 315.703 180.039H308.135H300.688V182.828C300.688 185.849 300.808 191.195 300.808 197.935C300.808 198.167 300.808 198.399 300.808 198.632C300.928 210.717 301.048 227.334 301.048 244.3C301.168 246.043 301.168 247.786 301.048 249.529C301.048 257.779 301.048 265.913 301.048 273.699V325.409V325.409Z" fill="#6D6A6A"/>
<path d="M301.048 325.409C301.889 337.61 304.171 348.65 305.973 355.738C306.093 356.087 306.213 356.552 306.333 356.9C307.294 360.967 308.135 363.524 308.255 363.872C308.255 363.524 309.096 360.967 310.057 356.9C311.859 349.928 314.501 338.308 315.342 325.293C315.703 321.574 315.703 317.856 315.703 314.021C315.462 306.119 315.342 291.129 315.342 273.815C315.342 266.029 315.342 257.779 315.342 249.529V244.416V244.3C315.462 226.985 315.462 210.02 315.582 197.935C315.703 187.244 315.703 180.272 315.703 180.039H308.135H300.688V182.828C300.688 185.849 300.808 191.195 300.808 197.935C300.808 198.167 300.808 198.399 300.808 198.632C300.928 210.717 301.048 227.334 301.048 244.3C301.168 246.043 301.168 247.786 301.048 249.529C301.048 257.779 301.048 265.913 301.048 273.699V325.409V325.409Z" fill="#6D6A6A"/>
<path d="M315.222 244.3H308.255H301.288C300.688 244.3 300.207 244.997 300.207 245.81V247.902C300.207 248.715 300.688 249.413 301.288 249.413H308.255H315.222C315.823 249.413 316.303 248.715 316.303 247.902V245.926C316.303 244.997 315.823 244.3 315.222 244.3Z" fill="#6D6A6A"/>
<path d="M315.222 244.3H308.255H301.288C300.688 244.3 300.207 244.997 300.207 245.81V247.902C300.207 248.715 300.688 249.413 301.288 249.413H308.255H315.222C315.823 249.413 316.303 248.715 316.303 247.902V245.926C316.303 244.997 315.823 244.3 315.222 244.3Z" fill="#6D6A6A"/>
<path d="M316.303 174.578H315.102V170.394C315.102 169.581 314.621 169 313.901 169H308.135H302.369C301.648 169 301.168 169.581 301.168 170.394V174.578H299.967C299.246 174.578 298.766 175.159 298.766 175.972V178.645C298.766 179.458 299.246 180.039 299.967 180.039H308.015H316.063C316.784 180.039 317.264 179.458 317.264 178.645V175.972C317.504 175.159 316.904 174.578 316.303 174.578Z" fill="#6D6A6A"/>
<path d="M316.303 174.578H315.102V170.394C315.102 169.581 314.621 169 313.901 169H308.135H302.369C301.648 169 301.168 169.581 301.168 170.394V174.578H299.967C299.246 174.578 298.766 175.159 298.766 175.972V178.645C298.766 179.458 299.246 180.039 299.967 180.039H308.015H316.063C316.784 180.039 317.264 179.458 317.264 178.645V175.972C317.504 175.159 316.904 174.578 316.303 174.578Z" fill="#6D6A6A"/>
<path d="M294.682 198.632H301.649V182.828C297.805 182.828 294.682 185.849 294.682 189.568V198.632Z" fill="#1E506A"/>
<path d="M301.048 325.409C301.889 337.61 304.171 348.65 305.973 355.738C306.093 356.087 306.213 356.552 306.333 356.9C307.294 360.967 308.135 363.524 308.255 363.872C308.255 363.524 309.096 360.967 310.057 356.9C311.859 349.928 314.501 338.308 315.342 325.293C315.703 321.574 315.703 317.856 315.703 314.021C315.462 306.119 315.342 291.129 315.342 273.815C315.342 266.029 315.342 257.779 315.342 249.529V244.416V244.3C315.462 226.985 315.462 210.02 315.582 197.935C315.703 187.244 315.703 180.272 315.703 180.039H308.135H300.688V182.828C300.688 185.849 300.808 191.195 300.808 197.935C300.808 198.167 300.808 198.399 300.808 198.632C300.928 210.717 301.048 227.334 301.048 244.3C301.168 246.043 301.168 247.786 301.048 249.529C301.048 257.779 301.048 265.913 301.048 273.699V325.409V325.409Z" fill="#CFEBF8"/>
<path d="M315.222 244.3H308.255H301.288C300.688 244.3 300.207 244.997 300.207 245.81V247.902C300.207 248.715 300.688 249.413 301.288 249.413H308.255H315.222C315.823 249.413 316.303 248.715 316.303 247.902V245.926C316.303 244.997 315.823 244.3 315.222 244.3Z" fill="#236A7E"/>
<path d="M316.303 174.578H315.102V170.394C315.102 169.581 314.621 169 313.901 169H308.135H302.369C301.648 169 301.168 169.581 301.168 170.394V174.578H299.967C299.246 174.578 298.766 175.159 298.766 175.972V178.645C298.766 179.458 299.246 180.039 299.967 180.039H308.015H316.063C316.784 180.039 317.264 179.458 317.264 178.645V175.972C317.504 175.159 316.904 174.578 316.303 174.578Z" fill="#1E506A"/>
<path d="M310.778 356.784C309.817 360.851 308.976 363.407 308.976 363.756C308.856 363.407 308.015 360.851 307.054 356.784H310.778Z" fill="#6D6A6A"/>
<path d="M302.85 327.036H313.541C314.622 327.036 315.583 326.223 315.583 325.061V273.815C315.583 272.769 314.742 271.84 313.541 271.84H302.85C301.769 271.84 300.808 272.653 300.808 273.815V325.061C300.808 326.106 301.769 327.036 302.85 327.036Z" fill="#8BB4BF"/>
</svg>
