<svg width="467" height="623" viewBox="0 0 467 623" fill="none" xmlns="http://www.w3.org/2000/svg">
<path d="M222.441 3.40672L11.0196 126.683C4.53819 130.485 0.522522 137.385 0.522522 144.918V478.279C0.522522 485.812 4.53819 492.782 11.0901 496.584L222.441 618.664C228.993 622.466 237.095 622.466 243.647 618.664L455.843 495.317C462.325 491.515 466.341 484.615 466.341 477.082V143.792C466.341 136.258 462.325 129.288 455.773 125.487L243.647 3.33632C237.095 -0.465478 228.993 -0.395074 222.441 3.40672Z" fill="#35B4B7" stroke="white" stroke-miterlimit="10"/>
<path d="M438.301 338.246H294.512C294.512 338.246 294.16 330.361 294.512 300.299C294.864 270.166 324.242 260.661 336.148 255.1C336.923 254.677 337.698 254.255 338.543 253.621C339.389 252.987 340.305 252.283 341.22 251.509C343.334 249.608 345.447 247.285 347.561 244.75C347.631 244.609 347.772 244.539 347.843 244.469C353.267 238.273 359.115 244.046 362.849 249.538C364.469 251.861 365.667 254.114 366.301 255.381C367.005 254.044 368.273 251.65 370.035 249.186C373.698 243.835 379.405 238.414 384.688 244.398C384.829 244.469 384.9 244.609 385.041 244.75C387.154 247.285 389.268 249.608 391.381 251.368C392.297 252.283 393.213 252.987 394.129 253.621C394.974 254.255 395.749 254.677 396.524 255.1C408.501 260.661 437.949 270.166 438.301 300.299C438.583 330.361 438.301 338.246 438.301 338.246Z" fill="white"/>
<path d="M391.381 251.368L367.851 278.896L366.371 280.586L366.23 280.797L364.892 279.248L341.22 251.509C343.334 249.608 345.447 247.285 347.561 244.75C347.631 244.609 347.772 244.539 347.843 244.469C349.956 246.51 354.324 248.904 362.849 249.538C363.483 249.608 364.187 249.679 364.892 249.679C365.174 249.749 365.455 249.749 365.808 249.749C366.442 249.679 367.217 249.326 367.851 249.326C368.626 249.256 369.33 249.256 370.035 249.186C378.207 248.482 382.504 246.299 384.759 244.398C386.943 247.003 389.197 249.467 391.381 251.368Z" fill="#BACDCF"/>
<path d="M366.794 259.746L366.371 168.222C366.371 168.222 396.947 165.405 397.299 180.753C397.651 196.101 407.232 258.127 366.794 259.746Z" fill="#FAFFFF"/>
<path d="M396.594 207.296C396.594 207.296 396.594 202.226 396.594 196.524C396.594 190.821 391.17 178.571 382.082 176.811C372.994 175.051 374.825 164.842 374.825 164.842C374.825 164.842 392.015 159.069 397.792 171.038C403.499 183.077 401.103 209.619 401.103 209.619L396.594 207.296Z" fill="#0B6983"/>
<path d="M401.315 206.31C406.458 202.93 404.485 209.689 404.485 217.926C404.485 227.572 393.142 236.302 393.142 236.302C393.142 236.302 388.281 217.926 397.792 209.196C398.074 208.915 398.426 208.704 398.638 208.422L401.315 206.31Z" fill="#FAFFFF"/>
<path d="M366.794 259.746L366.935 168.222C366.935 168.222 336.712 165.405 336.43 180.753C336.148 196.101 326.919 258.127 366.794 259.746Z" fill="#CFE3E5"/>
<path d="M382.786 168.644C382.786 168.644 390.606 177.585 382.152 179.134C373.698 180.613 356.508 175.262 346.575 183.006C336.641 190.751 338.402 196.172 338.402 206.028L335.655 209.619H331.146C331.146 209.619 331.146 194.341 331.146 185.682C331.146 177.022 332.626 158.154 363.131 158.154C363.131 158.154 387.577 155.971 381.236 170.686C374.896 185.4 382.786 168.644 382.786 168.644Z" fill="#0F3B62"/>
<path d="M340.516 236.302C340.516 236.302 329.314 227.572 329.314 217.926C329.314 208.281 326.637 200.537 335.937 209.196C345.307 217.926 340.516 236.302 340.516 236.302Z" fill="#CFE3E5"/>
<path d="M401.033 130.767V182.091C401.033 182.091 379.898 177.867 365.949 177.726H365.103C351.154 177.726 331.71 182.091 331.71 182.091V131.4C331.71 131.4 338.543 124.642 364.399 124.642H365.949C390.747 124.853 401.033 130.767 401.033 130.767Z" fill="white"/>
<path d="M366.935 124.642V177.726H366.089C351.788 177.726 331.78 182.091 331.78 182.091V131.4C331.78 131.4 338.825 124.642 365.385 124.642H366.935Z" fill="#D0E8EA"/>
<path d="M370.246 147.241V139.638H361.721V147.241H354.042V155.76H361.721V163.434H370.246V155.76H377.925V147.241H370.246Z" fill="#0D3760"/>
<path d="M153.752 219.757C149.595 198.354 149.948 156.605 109.861 155.056H109.791C109.721 155.056 109.65 155.056 109.58 155.056V155.126C69.423 156.675 69.3525 198.425 65.1959 219.827C61.0394 241.3 48.4992 328.249 48.4992 328.249L109.368 297.905L170.449 328.249C170.449 328.108 157.979 241.16 153.752 219.757Z" fill="#215985"/>
<path d="M80.6951 158.858L91.0513 181.457C91.0513 181.457 98.9417 176.74 112.186 176.74C125.431 176.74 128.742 181.457 128.742 181.457L138.253 158.858C138.253 158.858 112.186 141.046 80.6951 158.858Z" fill="#FFF8F3"/>
<path d="M117.4 164.138H111.552V158.295H107.396V164.138H101.478V168.292H107.396V174.135H111.552V168.292H117.4V164.138Z" fill="#052E69"/>
<path d="M166.856 281.149C147.271 268.899 109.509 262.844 109.509 262.844C109.509 262.844 71.6774 268.899 52.1626 281.149C32.5774 293.399 37.1567 337.824 37.1567 337.824H109.509H181.862C181.791 337.753 186.371 293.329 166.856 281.149Z" fill="#FEFFFF"/>
<path d="M109.439 296.426C109.439 296.426 83.372 279.67 83.372 273.052C83.372 266.435 91.192 264.956 91.192 264.956L93.7987 247.778L109.439 252.776V296.426Z" fill="#BECFD1"/>
<path d="M109.368 296.426C109.368 296.426 135.435 279.67 135.435 273.052C135.435 266.435 127.615 264.956 127.615 264.956L125.008 247.778L109.368 252.776V296.426Z" fill="white"/>
<path d="M144.03 225.389C144.03 225.389 143.819 230.529 140.578 230.529C137.408 230.529 129.447 259.605 109.65 260.38V260.45H109.439C109.368 260.45 109.368 260.45 109.298 260.45H108.875V260.38C89.2195 259.605 81.3995 230.529 78.2292 230.529C74.9885 230.529 74.8476 225.389 74.8476 225.389C74.8476 225.389 73.2977 215.674 75.2703 212.365C77.3134 209.126 79.4973 213.843 80.1314 213.843C80.1314 186.315 105 188.005 109.298 188.498C109.368 188.498 109.368 188.498 109.439 188.498C114.018 188.005 138.605 186.526 138.605 213.843C139.31 213.843 141.494 209.126 143.537 212.365C145.58 215.674 144.03 225.389 144.03 225.389Z" fill="white"/>
<path d="M109.439 188.498V260.45C109.368 260.45 109.368 260.45 109.298 260.45H108.875V260.38C89.2195 259.605 81.3995 230.529 78.2292 230.529C74.9885 230.529 74.8476 225.389 74.8476 225.389C74.8476 225.389 73.2977 215.674 75.2703 212.365C77.3134 209.126 79.4973 213.843 80.1314 213.843C80.1314 186.315 105 188.005 109.298 188.498C109.368 188.498 109.368 188.498 109.439 188.498Z" fill="#CEE3E9"/>
<path d="M234.277 240.596L233.572 360.635H129.024C129.024 360.635 128.531 349.088 129.024 304.945C129.517 260.732 172.281 246.792 189.611 238.625C190.739 238.062 191.936 237.358 193.134 236.513C197.361 233.556 201.87 228.839 206.308 223.488C219.412 207.436 234.277 240.596 234.277 240.596Z" fill="#BBEEFF"/>
<path d="M232.797 240.596L233.572 360.635H338.332C338.332 360.635 338.825 349.088 338.332 304.945C337.839 260.732 294.935 246.792 277.604 238.625C276.477 238.062 275.279 237.358 274.081 236.513C269.854 233.556 265.345 228.839 260.907 223.488C247.733 207.436 232.797 240.596 232.797 240.596Z" fill="#BBEEFF"/>
<path d="M231.529 240.526C216.805 239.048 209.76 230.458 206.449 223.629C202.011 228.98 197.502 233.697 193.275 236.654L231.529 334.937L233.432 339.725L232.938 240.596C232.445 240.596 231.952 240.596 231.529 240.526Z" fill="#0B395D"/>
<path d="M233.432 339.795L233.713 339.161L235.827 333.74L274.152 235.457C269.925 232.5 265.416 227.783 260.978 222.432C257.667 229.261 250.622 237.851 235.827 239.329C234.911 239.47 233.784 240.596 232.798 240.667" fill="#0B395D"/>
<path d="M225.823 263.9L221.244 308.606L233.361 339.795L233.854 264.674H229.909C228.5 264.674 227.161 264.393 225.823 263.9Z" fill="#00698F"/>
<path d="M241.885 263.9L245.619 308.536L233.431 339.795L233.925 264.674H237.87C239.279 264.674 240.617 264.393 241.885 263.9Z" fill="#2FB3B5"/>
<path d="M242.026 264.322C241.956 264.322 241.956 264.393 241.885 264.393C240.617 264.815 239.208 265.167 237.799 265.167H229.979C228.5 265.167 227.161 264.815 225.893 264.393C225.682 264.322 225.471 264.252 225.33 264.111L225.471 263.548L233.854 263.83L241.885 264.111L242.026 264.322Z" fill="#0B395D"/>
<path d="M233.854 248.2V264.956H229.979C228.5 264.956 227.161 264.604 225.893 264.182C225.682 264.111 225.471 264.041 225.33 263.9C220.891 262.14 217.862 257.845 217.862 252.847V248.2H233.854Z" fill="#056D98"/>
<path d="M249.917 248.2V252.847C249.917 257.986 246.606 262.422 242.026 264.111C241.956 264.111 241.956 264.182 241.885 264.182C240.617 264.604 239.208 264.956 237.799 264.956H233.854V248.2H249.917Z" fill="#2FB3B5"/>
<path d="M234.981 245.525L234.418 111.195C234.418 111.195 278.942 107.111 279.436 129.57C279.929 152.099 293.808 243.061 234.981 245.525Z" fill="#FAFFFF"/>
<path d="M278.309 168.574C278.309 168.574 278.309 161.111 278.309 152.803C278.309 144.496 270.418 126.472 257.244 123.797C244.07 121.192 246.676 106.266 246.676 106.266C246.676 106.266 271.686 97.7475 280.07 115.419C288.453 133.09 284.931 172.023 284.931 172.023L278.309 168.574Z" fill="#0B6983"/>
<path d="M285.283 167.095C292.751 162.096 289.933 172.094 289.933 184.133C289.933 198.284 273.377 211.097 273.377 211.097C273.377 211.097 266.332 184.133 280.14 171.319C280.563 170.897 281.056 170.545 281.408 170.193L285.283 167.095Z" fill="#FAFFFF"/>
<path d="M234.981 245.525L235.193 111.195C235.193 111.195 191.232 107.111 190.739 129.57C190.246 152.099 176.86 243.061 234.981 245.525Z" fill="#CFE3E5"/>
<path d="M258.301 111.828C258.301 111.828 269.714 124.994 257.455 127.176C245.197 129.359 220.116 121.474 205.604 132.879C191.091 144.284 193.768 152.17 193.768 166.673L189.823 171.953H183.2C183.2 171.953 183.2 149.565 183.2 136.822C183.2 124.078 185.384 96.4099 229.768 96.4099C229.768 96.4099 265.346 93.1713 256.117 114.785C246.888 136.399 258.301 111.828 258.301 111.828Z" fill="#0F3B62"/>
<path d="M196.727 211.027C196.727 211.027 180.382 198.284 180.382 184.062C180.382 169.841 176.437 158.506 190.034 171.319C203.631 184.133 196.727 211.027 196.727 211.027Z" fill="#CFE3E5"/>
<path d="M187.427 333.952H70.1275V488.558H187.427V333.952Z" fill="#003763"/>
<path d="M172.562 459.763V453.708V356.129H85.063V468.282H162.629L172.562 459.763Z" fill="white"/>
<path d="M98.0258 372.603H159.529" stroke="#6D6A6A" stroke-width="0.25" stroke-miterlimit="10"/>
<path d="M98.0258 382.741H159.529" stroke="#6D6A6A" stroke-width="0.25" stroke-miterlimit="10"/>
<path d="M98.0258 392.879H159.529" stroke="#6D6A6A" stroke-width="0.25" stroke-miterlimit="10"/>
<path d="M98.0258 403.017H159.529" stroke="#6D6A6A" stroke-width="0.25" stroke-miterlimit="10"/>
<path d="M98.0258 413.156H159.529" stroke="#6D6A6A" stroke-width="0.25" stroke-miterlimit="10"/>
<path d="M98.0258 423.294H159.529" stroke="#6D6A6A" stroke-width="0.25" stroke-miterlimit="10"/>
<path d="M98.0258 433.432H159.529" stroke="#6D6A6A" stroke-width="0.25" stroke-miterlimit="10"/>
<path d="M98.0258 443.57H159.529" stroke="#6D6A6A" stroke-width="0.25" stroke-miterlimit="10"/>
<path d="M98.0258 453.708H159.529" stroke="#6D6A6A" stroke-width="0.25" stroke-miterlimit="10"/>
<path d="M172.562 459.763H162.629V468.282" fill="#8EA1B4"/>
<path d="M107.607 328.038V333.811H110.566V339.936H147.059V333.811H149.948V328.038H107.607Z" fill="#A1AAB3"/>
<path d="M115.498 334.444H142.551" stroke="#6D6A6A" stroke-width="0.25" stroke-miterlimit="10"/>
<path d="M164.954 334.444H169.04V324.869C166.785 324.869 164.954 326.7 164.954 328.953V334.444Z" fill="#6D6A6A"/>
<path d="M168.688 411.255C169.181 418.647 170.519 425.335 171.576 429.63C171.646 429.841 171.717 430.123 171.787 430.334C172.351 432.798 172.844 434.347 172.915 434.558C172.915 434.347 173.408 432.798 173.971 430.334C175.028 426.11 176.578 419.07 177.071 411.184C177.282 408.931 177.282 406.679 177.282 404.355C177.142 399.568 177.071 390.486 177.071 379.996C177.071 375.279 177.071 370.28 177.071 365.281V362.183V362.113C177.142 351.623 177.142 341.344 177.212 334.022C177.282 327.545 177.282 323.321 177.282 323.18H172.844H168.476V324.87C168.476 326.7 168.547 329.939 168.547 334.022C168.547 334.163 168.547 334.304 168.547 334.444C168.617 341.766 168.688 351.834 168.688 362.113C168.758 363.169 168.758 364.225 168.688 365.281C168.688 370.28 168.688 375.208 168.688 379.925V411.255Z" fill="#6D6A6A"/>
<path d="M168.688 411.255C169.181 418.647 170.519 425.335 171.576 429.63C171.646 429.841 171.717 430.123 171.787 430.334C172.351 432.798 172.844 434.347 172.915 434.558C172.915 434.347 173.408 432.798 173.971 430.334C175.028 426.11 176.578 419.07 177.071 411.184C177.282 408.931 177.282 406.679 177.282 404.355C177.142 399.568 177.071 390.486 177.071 379.996C177.071 375.279 177.071 370.28 177.071 365.281V362.183V362.113C177.142 351.623 177.142 341.344 177.212 334.022C177.282 327.545 177.282 323.321 177.282 323.18H172.844H168.476V324.87C168.476 326.7 168.547 329.939 168.547 334.022C168.547 334.163 168.547 334.304 168.547 334.444C168.617 341.766 168.688 351.834 168.688 362.113C168.758 363.169 168.758 364.225 168.688 365.281C168.688 370.28 168.688 375.208 168.688 379.925V411.255Z" fill="#6D6A6A"/>
<path d="M177.001 362.113H172.915H168.828C168.476 362.113 168.194 362.535 168.194 363.028V364.296C168.194 364.788 168.476 365.211 168.828 365.211H172.915H177.001C177.353 365.211 177.635 364.788 177.635 364.296V363.099C177.635 362.535 177.353 362.113 177.001 362.113Z" fill="#6D6A6A"/>
<path d="M177.001 362.113H172.915H168.828C168.476 362.113 168.194 362.535 168.194 363.028V364.296C168.194 364.788 168.476 365.211 168.828 365.211H172.915H177.001C177.353 365.211 177.635 364.788 177.635 364.296V363.099C177.635 362.535 177.353 362.113 177.001 362.113Z" fill="#6D6A6A"/>
<path d="M177.635 319.871H176.93V317.336C176.93 316.843 176.648 316.491 176.226 316.491H172.844H169.462C169.04 316.491 168.758 316.843 168.758 317.336V319.871H168.053C167.631 319.871 167.349 320.223 167.349 320.716V322.335C167.349 322.828 167.631 323.18 168.053 323.18H172.774H177.494C177.917 323.18 178.198 322.828 178.198 322.335V320.716C178.339 320.223 177.987 319.871 177.635 319.871Z" fill="#6D6A6A"/>
<path d="M177.635 319.871H176.93V317.336C176.93 316.843 176.648 316.491 176.226 316.491H172.844H169.462C169.04 316.491 168.758 316.843 168.758 317.336V319.871H168.053C167.631 319.871 167.349 320.223 167.349 320.716V322.335C167.349 322.828 167.631 323.18 168.053 323.18H172.774H177.494C177.917 323.18 178.198 322.828 178.198 322.335V320.716C178.339 320.223 177.987 319.871 177.635 319.871Z" fill="#6D6A6A"/>
<path d="M164.954 334.444H169.04V324.869C166.785 324.869 164.954 326.7 164.954 328.953V334.444Z" fill="#1E506A"/>
<path d="M168.688 411.255C169.181 418.647 170.519 425.335 171.576 429.63C171.646 429.841 171.717 430.123 171.787 430.334C172.351 432.798 172.844 434.347 172.915 434.558C172.915 434.347 173.408 432.798 173.971 430.334C175.028 426.11 176.578 419.07 177.071 411.184C177.282 408.931 177.282 406.679 177.282 404.355C177.142 399.568 177.071 390.486 177.071 379.996C177.071 375.279 177.071 370.28 177.071 365.281V362.183V362.113C177.142 351.623 177.142 341.344 177.212 334.022C177.282 327.545 177.282 323.321 177.282 323.18H172.844H168.476V324.87C168.476 326.7 168.547 329.939 168.547 334.022C168.547 334.163 168.547 334.304 168.547 334.444C168.617 341.766 168.688 351.834 168.688 362.113C168.758 363.169 168.758 364.225 168.688 365.281C168.688 370.28 168.688 375.208 168.688 379.925V411.255Z" fill="#CFEBF8"/>
<path d="M177.001 362.113H172.915H168.828C168.476 362.113 168.194 362.535 168.194 363.028V364.296C168.194 364.788 168.476 365.211 168.828 365.211H172.915H177.001C177.353 365.211 177.635 364.788 177.635 364.296V363.099C177.635 362.535 177.353 362.113 177.001 362.113Z" fill="#236A7E"/>
<path d="M177.635 319.871H176.93V317.336C176.93 316.843 176.648 316.491 176.226 316.491H172.844H169.462C169.04 316.491 168.758 316.843 168.758 317.336V319.871H168.053C167.631 319.871 167.349 320.223 167.349 320.716V322.335C167.349 322.828 167.631 323.18 168.053 323.18H172.774H177.494C177.917 323.18 178.198 322.828 178.198 322.335V320.716C178.339 320.223 177.987 319.871 177.635 319.871Z" fill="#1E506A"/>
<path d="M174.394 430.264C173.83 432.728 173.337 434.277 173.337 434.488C173.267 434.277 172.774 432.728 172.21 430.264H174.394Z" fill="#6D6A6A"/>
<path d="M169.744 412.24H176.014C176.648 412.24 177.212 411.748 177.212 411.043V379.996C177.212 379.362 176.719 378.799 176.014 378.799H169.744C169.11 378.799 168.547 379.291 168.547 379.996V411.043C168.547 411.677 169.11 412.24 169.744 412.24Z" fill="#8BB4BF"/>
</svg>
