<svg width="283" height="354" viewBox="0 0 283 354" fill="none" xmlns="http://www.w3.org/2000/svg">
<path d="M282.284 354H0.301777C0.301777 354 -0.377221 338.529 0.301777 279.556C0.980774 220.443 58.6107 201.803 81.9512 190.886C83.479 190.066 84.9784 189.217 86.6476 187.973C88.3169 186.728 90.0992 185.342 91.9098 183.815C96.0687 180.081 100.199 175.528 104.358 170.55C104.5 170.267 104.783 170.125 104.924 169.984C115.562 157.822 127.02 169.164 134.347 179.94C137.516 184.494 139.864 188.906 141.109 191.395C142.495 188.765 144.985 184.069 148.436 179.233C155.622 168.739 166.826 158.105 177.181 169.843C177.464 169.984 177.605 170.267 177.86 170.521C182.018 175.499 186.149 180.053 190.308 183.504C192.09 185.286 193.901 186.672 195.683 187.916C197.352 189.161 198.852 189.981 200.38 190.829C223.862 201.747 281.633 220.386 282.312 279.5C282.821 338.529 282.284 354 282.284 354Z" fill="white"/>
<path d="M190.251 183.532L144.108 237.526L141.194 240.835L140.911 241.259L138.28 238.233L91.8532 183.815C96.0121 180.081 100.143 175.527 104.302 170.549C104.443 170.266 104.726 170.125 104.867 169.984C108.998 174 117.57 178.695 134.291 179.94C135.535 180.081 136.922 180.222 138.308 180.222C138.874 180.364 139.411 180.364 140.09 180.364C141.335 180.222 142.863 179.544 144.108 179.544C145.636 179.402 147.022 179.402 148.38 179.261C164.365 177.875 172.795 173.547 177.181 169.814C181.566 175.075 185.923 179.911 190.251 183.532Z" fill="#BACDCF"/>
<path d="M142.014 200.078L141.222 20.4461C141.222 20.4461 201.172 14.9873 201.879 45.0532C202.586 75.1192 221.287 196.797 142.014 200.078Z" fill="#FAFFFF"/>
<path d="M200.408 97.1807C200.408 97.1807 200.408 87.1965 200.408 76.0526C200.408 64.9086 189.77 40.8389 172.003 37.3034C154.264 33.7679 157.801 13.8277 157.801 13.8277C157.801 13.8277 191.524 2.4292 202.784 26.0464C214.044 49.6636 209.292 101.763 209.292 101.763L200.408 97.1807Z" fill="#0B6983"/>
<path d="M209.744 95.1443C219.816 88.4692 215.997 101.819 215.997 117.913C215.997 136.835 193.703 153.975 193.703 153.975C193.703 153.975 184.225 117.913 202.813 100.801C203.379 100.235 204.058 99.7546 204.51 99.302L209.744 95.1443Z" fill="#FAFFFF"/>
<path d="M142.014 200.078L142.269 20.4461C142.269 20.4461 83.0545 14.9873 82.3755 45.0532C81.6965 75.1192 63.7597 196.797 142.014 200.078Z" fill="#CFE3E5"/>
<path d="M173.418 21.323C173.418 21.323 188.809 38.9439 172.23 41.8572C155.651 44.7987 121.927 34.2205 102.406 49.4939C82.8849 64.7672 86.4213 75.3172 86.4213 94.6918L81.1025 101.734H72.2189C72.2189 101.734 72.2189 71.81 72.2189 54.783C72.2189 37.756 75.1896 0.788755 134.941 0.788755C134.941 0.788755 182.867 -3.56699 170.447 25.311C158.027 54.189 173.418 21.323 173.418 21.323Z" fill="#0F3B62"/>
<path d="M90.467 153.975C90.467 153.975 68.4561 136.892 68.4561 117.913C68.4561 98.9344 63.1656 83.7459 81.4986 100.829C99.8315 117.913 90.467 153.975 90.467 153.975Z" fill="#CFE3E5"/>
</svg>
