<svg width="171" height="306" viewBox="0 0 171 306" fill="none" xmlns="http://www.w3.org/2000/svg">
<path d="M127.627 4.16234H103.795V61.6549H127.627V4.16234Z" fill="#08385E"/>
<path d="M112.228 262.091C88.2463 262.091 89.7596 269.342 89.7596 269.342V289.575H112.228H134.789V269.342C134.789 269.342 136.314 262.091 112.228 262.091Z" fill="#CFE9EC"/>
<path d="M112.274 266.686C118.808 266.686 124.104 265.892 124.104 264.912C124.104 263.932 118.808 263.138 112.274 263.138C105.741 263.138 100.445 263.932 100.445 264.912C100.445 265.892 105.741 266.686 112.274 266.686Z" fill="#59A3A7"/>
<path d="M89.5055 271.601C93.2945 272.273 97.0952 272.582 100.884 272.835C104.685 273.045 108.474 273.177 112.286 273.155C116.087 273.188 119.887 273.067 123.676 272.857C127.465 272.615 131.266 272.317 135.043 271.59C131.532 273.188 127.685 274.004 123.861 274.566C120.026 275.128 116.144 275.337 112.274 275.348C108.405 275.315 104.523 275.095 100.688 274.521C96.8757 273.959 93.0289 273.155 89.5055 271.601Z" fill="#59A3A7"/>
<path d="M76.729 291.636V258.024C76.729 258.024 77.9997 250.53 67.857 250.53C57.7144 250.53 41.7495 290.435 41.7495 290.435L76.729 291.636Z" fill="#D0E3E6"/>
<path d="M170.508 286.236H12.3381V305.257H170.508V286.236Z" fill="#0C3861"/>
<path d="M68.3537 263.226C70.3826 263.226 72.0273 261.657 72.0273 259.721C72.0273 257.786 70.3826 256.217 68.3537 256.217C66.3249 256.217 64.6802 257.786 64.6802 259.721C64.6802 261.657 66.3249 263.226 68.3537 263.226Z" fill="#00636F"/>
<path d="M33.8595 190.459C45.2959 236.623 84.1569 223.884 84.1569 223.884V289.983L80.1599 291.647V255.853C80.1599 255.853 81.9042 247.147 67.8801 247.147C59.3778 247.147 47.9414 264.24 40.2246 277.673C21.7992 259.622 0.682129 227.212 0.682129 173.753C0.682129 78.9566 93.9645 70.7355 93.9645 70.7355V144.251H59.0313C59.0313 144.24 22.4807 144.24 33.8595 190.459Z" fill="#0A395E"/>
<path d="M97.1297 147.37C97.1297 147.37 96.5752 170.105 115.578 170.105C134.581 170.105 134.304 153.663 134.304 153.663L97.1297 147.37Z" fill="#0E3C64"/>
<path d="M134.304 157.608H97.1298V60.4316C97.1298 59.5279 97.8922 58.8006 98.8395 58.8006H132.606C133.553 58.8006 134.316 59.5279 134.316 60.4316V157.608H134.304Z" fill="#CDE3E8"/>
<path d="M112.841 210.825H103.888C103.703 210.825 103.553 210.681 103.553 210.505V205.513H113.187V210.505C113.176 210.681 113.025 210.825 112.841 210.825Z" fill="#163560"/>
<path d="M114.804 206.35H101.901C101.82 206.35 101.762 206.295 101.762 206.218V204.796C101.762 204.719 101.82 204.664 101.901 204.664H114.804C114.885 204.664 114.943 204.719 114.943 204.796V206.218C114.943 206.295 114.885 206.35 114.804 206.35Z" fill="#366E8F"/>
<path d="M115.451 172.805H101.254V205.502H115.451V172.805Z" fill="#163560"/>
<path d="M156.623 194.658L148.074 197.204C147.901 197.259 147.704 197.159 147.647 196.994L146.434 193.291L155.629 190.547L156.842 194.25C156.9 194.426 156.807 194.614 156.623 194.658Z" fill="#163560"/>
<path d="M157.397 190.724L145.082 194.393C145.013 194.415 144.932 194.371 144.909 194.305L144.574 193.28C144.551 193.214 144.597 193.137 144.666 193.115L156.981 189.445C157.05 189.423 157.131 189.467 157.154 189.533L157.489 190.558C157.512 190.624 157.477 190.702 157.397 190.724Z" fill="#366E8F"/>
<path d="M149.724 165.217L136.174 169.26L144.267 193.945L157.817 189.902L149.724 165.217Z" fill="#163560"/>
<path d="M131.185 196.289L124.081 196.421C123.896 196.421 123.746 196.278 123.734 196.102L123.665 192.806L131.451 192.663L131.52 195.958C131.52 196.135 131.37 196.289 131.185 196.289Z" fill="#163560"/>
<path d="M132.791 193.214L122.348 193.402C122.29 193.402 122.244 193.358 122.244 193.302L122.221 192.344C122.221 192.289 122.267 192.244 122.325 192.244L132.768 192.057C132.825 192.057 132.872 192.101 132.872 192.156L132.895 193.115C132.895 193.17 132.849 193.214 132.791 193.214Z" fill="#366E8F"/>
<path d="M132.853 170.369L121.385 170.57L121.833 192.826L133.302 192.625L132.853 170.369Z" fill="#163560"/>
<path d="M153.076 161.84C153.642 165.333 151.101 168.606 147.497 169.091L98.2619 176.188C94.5999 176.728 91.2152 174.304 90.6607 170.865L90.5452 169.84L95.7782 169.091C95.8937 168.926 96.0093 168.771 96.1132 168.606C97.0143 167.151 98.3659 165.487 100.168 165.278L141.455 159.316C143.257 159.096 145.117 160.286 146.526 161.355C146.699 161.465 146.803 161.619 146.977 161.729L152.949 160.87L153.076 161.84Z" fill="#DDF5FE"/>
<path d="M146.988 161.729L95.7898 169.091C95.9053 168.926 96.0208 168.771 96.1248 168.606L146.538 161.355C146.711 161.465 146.815 161.619 146.988 161.729Z" fill="#34768B"/>
<path d="M142.113 248.624V259.743H86.5134V248.624H92.7053V228.093H133.773V248.624H142.113Z" fill="#0A395E"/>
<path d="M133.773 245.935H92.7053V248.569H133.773V245.935Z" fill="#2B6887"/>
<path d="M75.1925 212.103H65.7198V217.591H68.2613V222.418H72.5702V217.591H75.1925V212.103Z" fill="#0A3C60"/>
<path d="M122.417 221.702V218.373L108.52 219.564L94.0685 218.373V221.702H61.2493V230.727H167.366V221.702H122.417Z" fill="#CFE9EC"/>
<path d="M76.5673 221.702C76.5673 221.702 76.9023 214.605 90.0831 216.224C103.264 217.844 108.844 217.58 108.844 217.58" stroke="#CFE9EC" stroke-width="2" stroke-miterlimit="10"/>
<path d="M122.417 218.076H94.0685V218.561H122.417V218.076Z" fill="#CFE9EC"/>
<path d="M135.459 68.4874H95.963C95.8129 68.4874 95.6858 68.3662 95.6858 68.2229V65.2474C95.6858 65.1042 95.8129 64.9829 95.963 64.9829H135.459C135.609 64.9829 135.737 65.1042 135.737 65.2474V68.2229C135.737 68.3772 135.621 68.4874 135.459 68.4874Z" fill="#517F80"/>
<path d="M68.2844 109.868C75.8511 109.868 81.9851 104.017 81.9851 96.7983C81.9851 89.58 75.8511 83.7283 68.2844 83.7283C60.7177 83.7283 54.5837 89.58 54.5837 96.7983C54.5837 104.017 60.7177 109.868 68.2844 109.868Z" stroke="#34768B" stroke-width="2" stroke-miterlimit="10"/>
<path d="M68.2844 99.8178C70.0325 99.8178 71.4496 98.466 71.4496 96.7983C71.4496 95.1307 70.0325 93.7788 68.2844 93.7788C66.5363 93.7788 65.1191 95.1307 65.1191 96.7983C65.1191 98.466 66.5363 99.8178 68.2844 99.8178Z" fill="#B5E1F5"/>
<path d="M47.3176 124.073C48.0513 124.073 48.6461 123.506 48.6461 122.806C48.6461 122.106 48.0513 121.539 47.3176 121.539C46.5839 121.539 45.9891 122.106 45.9891 122.806C45.9891 123.506 46.5839 124.073 47.3176 124.073Z" fill="#B5E1F5"/>
<path d="M47.3175 129.209C51.0243 129.209 54.0293 126.342 54.0293 122.806C54.0293 119.27 51.0243 116.403 47.3175 116.403C43.6108 116.403 40.6058 119.27 40.6058 122.806C40.6058 126.342 43.6108 129.209 47.3175 129.209Z" stroke="#34768B" stroke-width="2" stroke-miterlimit="10"/>
<path d="M131.035 5.07701H100.399C100.18 5.07701 100.006 4.91171 100.006 4.70233V0.900353C100.006 0.690969 100.18 0.525665 100.399 0.525665H131.035C131.254 0.525665 131.428 0.690969 131.428 0.900353V4.70233C131.428 4.90069 131.254 5.07701 131.035 5.07701Z" fill="#386281"/>
</svg>
