<svg width="467" height="699" viewBox="0 0 467 699" fill="none" xmlns="http://www.w3.org/2000/svg">
<path d="M222.529 4.24011L11.4787 142.605C5.00862 146.872 1 154.616 1 163.071V537.233C1 545.688 5.00862 553.511 11.549 557.778L222.529 694.8C229.069 699.067 237.157 699.067 243.697 694.8L455.521 556.356C461.991 552.089 466 544.345 466 535.89V161.807C466 153.352 461.991 145.529 455.451 141.262L243.697 4.16109C237.157 -0.106012 229.069 -0.0269909 222.529 4.24011Z" fill="#35B4B7" stroke="white" stroke-miterlimit="10"/>
<path d="M234.898 298.519L233.956 462.762H94.2928C94.2928 462.762 93.634 446.964 94.2928 386.565C94.9516 326.07 152.078 306.997 175.23 295.822C176.736 295.052 178.336 294.088 179.936 292.932C185.582 288.886 191.606 282.432 197.535 275.111C215.04 253.148 234.898 298.519 234.898 298.519Z" fill="#BBEEFF"/>
<path d="M232.921 298.52L233.956 462.762H373.902C373.902 462.762 374.561 446.964 373.902 386.565C373.244 326.07 315.929 306.997 292.777 295.822C291.271 295.052 289.671 294.088 288.071 292.932C282.425 288.887 276.401 282.432 270.472 275.111C252.873 253.148 232.921 298.52 232.921 298.52Z" fill="#BBEEFF"/>
<path d="M231.227 298.423C211.558 296.4 202.146 284.648 197.723 275.304C191.794 282.625 185.771 289.079 180.124 293.125L231.227 427.602L233.768 434.152L233.11 298.52C232.451 298.52 231.792 298.52 231.227 298.423Z" fill="#0B395D"/>
<path d="M233.768 434.249L234.145 433.382L236.968 425.964L288.166 291.487C282.519 287.442 276.496 280.987 270.567 273.666C266.143 283.01 256.732 294.763 236.968 296.786C235.745 296.978 234.239 298.52 232.921 298.616" fill="#0B395D"/>
<path d="M223.604 330.405L217.487 391.574L233.674 434.248L234.333 331.464H229.063C227.18 331.464 225.392 331.079 223.604 330.405Z" fill="#00698F"/>
<path d="M245.062 330.405L250.05 391.478L233.768 434.248L234.427 331.464H239.697C241.58 331.464 243.368 331.079 245.062 330.405Z" fill="#2FB3B5"/>
<path d="M245.25 330.983C245.156 330.983 245.156 331.079 245.062 331.079C243.368 331.657 241.485 332.139 239.603 332.139H229.157C227.18 332.139 225.392 331.657 223.698 331.079C223.416 330.983 223.133 330.887 222.945 330.694L223.133 329.923L234.333 330.309L245.062 330.694L245.25 330.983Z" fill="#0B395D"/>
<path d="M234.333 308.923V331.85H229.157C227.18 331.85 225.392 331.368 223.698 330.79C223.416 330.694 223.133 330.597 222.945 330.405C217.016 327.997 212.969 322.12 212.969 315.281V308.923H234.333V308.923Z" fill="#056D98"/>
<path d="M255.791 308.923V315.281C255.791 322.313 251.367 328.382 245.25 330.694C245.156 330.694 245.156 330.79 245.062 330.79C243.368 331.368 241.485 331.85 239.603 331.85H234.333V308.923H255.791V308.923Z" fill="#2FB3B5"/>
<path d="M235.839 305.263L235.086 121.465C235.086 121.465 294.565 115.878 295.224 146.607C295.883 177.433 314.423 301.891 235.839 305.263Z" fill="#FAFFFF"/>
<path d="M293.718 199.974C293.718 199.974 293.718 189.763 293.718 178.396C293.718 167.029 283.178 142.368 265.579 138.708C247.979 135.144 251.462 114.722 251.462 114.722C251.462 114.722 284.872 103.066 296.071 127.245C307.271 151.423 302.565 204.694 302.565 204.694L293.718 199.974Z" fill="#0B6983"/>
<path d="M303.036 197.951C313.012 191.112 309.247 204.79 309.247 221.263C309.247 240.625 287.13 258.157 287.13 258.157C287.13 258.157 277.719 221.263 296.165 203.731C296.73 203.153 297.389 202.671 297.859 202.19L303.036 197.951Z" fill="#FAFFFF"/>
<path d="M235.839 305.263L236.121 121.465C236.121 121.465 177.395 115.878 176.736 146.607C176.077 177.433 158.196 301.891 235.839 305.263Z" fill="#CFE3E5"/>
<path d="M266.99 122.332C266.99 122.332 282.237 140.346 265.861 143.332C249.485 146.318 215.981 135.529 196.594 151.135C177.206 166.74 180.783 177.529 180.783 197.373L175.512 204.598H166.666C166.666 204.598 166.666 173.965 166.666 156.529C166.666 139.093 169.583 101.236 228.875 101.236C228.875 101.236 276.402 96.8044 264.073 126.378C251.744 155.951 266.99 122.332 266.99 122.332Z" fill="#0F3B62"/>
<path d="M184.735 258.061C184.735 258.061 162.901 240.625 162.901 221.166C162.901 201.708 157.631 186.199 175.795 203.731C193.959 221.263 184.735 258.061 184.735 258.061Z" fill="#CFE3E5"/>
<path d="M405.867 383.997H285V543.366H405.867V383.997Z" fill="#003763"/>
<path d="M390.512 513.63V507.447V406.853H300.341V522.472H380.314L390.512 513.63Z" fill="white"/>
<path d="M313.734 423.839H377.118" stroke="#6D6A6A" stroke-width="0.25" stroke-miterlimit="10"/>
<path d="M313.734 434.287H377.118" stroke="#6D6A6A" stroke-width="0.25" stroke-miterlimit="10"/>
<path d="M313.734 444.749H377.118" stroke="#6D6A6A" stroke-width="0.25" stroke-miterlimit="10"/>
<path d="M313.734 455.196H377.118" stroke="#6D6A6A" stroke-width="0.25" stroke-miterlimit="10"/>
<path d="M313.734 465.643H377.118" stroke="#6D6A6A" stroke-width="0.25" stroke-miterlimit="10"/>
<path d="M313.734 476.091H377.118" stroke="#6D6A6A" stroke-width="0.25" stroke-miterlimit="10"/>
<path d="M313.734 486.538H377.118" stroke="#6D6A6A" stroke-width="0.25" stroke-miterlimit="10"/>
<path d="M313.734 497H377.118" stroke="#6D6A6A" stroke-width="0.25" stroke-miterlimit="10"/>
<path d="M313.734 507.447H377.118" stroke="#6D6A6A" stroke-width="0.25" stroke-miterlimit="10"/>
<path d="M390.512 513.63H380.314V522.472" fill="#8EA1B4"/>
<path d="M323.604 377.874V383.804H326.607V390.12H364.245V383.804H367.248V377.874H323.604Z" fill="#A1AAB3"/>
<path d="M331.706 384.517H359.563" stroke="#6D6A6A" stroke-width="0.25" stroke-miterlimit="10"/>
<path d="M382.678 384.517H386.914V374.679H383.54C383.064 374.679 382.678 375.065 382.678 375.541V384.517Z" fill="#6D6A6A"/>
<path d="M386.528 463.696C387.018 471.32 388.431 478.216 389.531 482.644C389.59 482.867 389.649 483.15 389.709 483.372C390.318 485.914 390.809 487.504 390.868 487.727C390.868 487.504 391.359 485.914 391.968 483.372C393.068 479.018 394.674 471.766 395.164 463.637C395.343 461.319 395.417 458.985 395.343 456.593C395.224 451.659 395.164 442.297 395.164 431.478C395.164 426.618 395.164 421.461 395.164 416.305V413.109V413.035C395.224 402.216 395.224 391.62 395.283 384.071C395.343 377.398 395.343 373.044 395.343 372.896H390.794H386.32V374.634C386.32 376.522 386.379 379.865 386.379 384.071C386.379 384.22 386.379 384.368 386.379 384.502C386.439 392.051 386.498 402.424 386.498 413.02C386.558 414.105 386.558 415.205 386.498 416.29C386.498 421.446 386.498 426.529 386.498 431.389V463.696H386.528Z" fill="#6D6A6A"/>
<path d="M386.528 463.696C387.018 471.32 388.431 478.216 389.531 482.644C389.59 482.867 389.649 483.15 389.709 483.372C390.318 485.914 390.809 487.504 390.868 487.727C390.868 487.504 391.359 485.914 391.968 483.372C393.068 479.018 394.674 471.766 395.164 463.637C395.343 461.319 395.417 458.985 395.343 456.593C395.224 451.659 395.164 442.297 395.164 431.478C395.164 426.618 395.164 421.461 395.164 416.305V413.109V413.035C395.224 402.216 395.224 391.62 395.283 384.071C395.343 377.398 395.343 373.044 395.343 372.896H390.794H386.32V374.634C386.32 376.522 386.379 379.865 386.379 384.071C386.379 384.22 386.379 384.368 386.379 384.502C386.439 392.051 386.498 402.424 386.498 413.02C386.558 414.105 386.558 415.205 386.498 416.29C386.498 421.446 386.498 426.529 386.498 431.389V463.696H386.528Z" fill="#6D6A6A"/>
<path d="M395.06 413.035H390.824H386.587C386.201 413.035 385.904 413.466 385.904 414.001V415.339C385.904 415.874 386.216 416.305 386.587 416.305H390.824H395.06C395.447 416.305 395.744 415.874 395.744 415.339V414.001C395.759 413.466 395.447 413.035 395.06 413.035Z" fill="#6D6A6A"/>
<path d="M395.06 413.035H390.824H386.587C386.201 413.035 385.904 413.466 385.904 414.001V415.339C385.904 415.874 386.216 416.305 386.587 416.305H390.824H395.06C395.447 416.305 395.744 415.874 395.744 415.339V414.001C395.759 413.466 395.447 413.035 395.06 413.035Z" fill="#6D6A6A"/>
<path d="M395.729 369.448H395.016V366.877C395.016 366.401 394.689 366 394.287 366H390.824H387.36C386.959 366 386.632 366.386 386.632 366.877V369.448H385.918C385.517 369.448 385.19 369.834 385.19 370.325V372.034C385.19 372.509 385.517 372.91 385.918 372.91H390.794C390.809 372.91 390.809 372.896 390.809 372.896C390.809 372.91 390.824 372.91 390.824 372.91H395.699C396.101 372.91 396.428 372.524 396.428 372.034V370.325C396.458 369.849 396.131 369.448 395.729 369.448Z" fill="#6D6A6A"/>
<path d="M395.729 369.448H395.016V366.877C395.016 366.401 394.689 366 394.287 366H390.824H387.36C386.959 366 386.632 366.386 386.632 366.877V369.448H385.918C385.517 369.448 385.19 369.834 385.19 370.325V372.034C385.19 372.509 385.517 372.91 385.918 372.91H390.794C390.809 372.91 390.809 372.896 390.809 372.896C390.809 372.91 390.824 372.91 390.824 372.91H395.699C396.101 372.91 396.428 372.524 396.428 372.034V370.325C396.458 369.849 396.131 369.448 395.729 369.448Z" fill="#6D6A6A"/>
<path d="M382.678 384.517H386.914V374.679H383.54C383.064 374.679 382.678 375.065 382.678 375.541V384.517Z" fill="#1E506A"/>
<path d="M386.528 463.696C387.018 471.32 388.431 478.216 389.531 482.644C389.59 482.867 389.649 483.15 389.709 483.372C390.318 485.914 390.809 487.504 390.868 487.727C390.868 487.504 391.359 485.914 391.968 483.372C393.068 479.018 394.674 471.766 395.164 463.637C395.343 461.319 395.417 458.985 395.343 456.593C395.224 451.659 395.164 442.297 395.164 431.478C395.164 426.618 395.164 421.461 395.164 416.305V413.109V413.035C395.224 402.216 395.224 391.62 395.283 384.071C395.343 377.398 395.343 373.044 395.343 372.896H390.794H386.32V374.634C386.32 376.522 386.379 379.865 386.379 384.071C386.379 384.22 386.379 384.368 386.379 384.502C386.439 392.051 386.498 402.424 386.498 413.02C386.558 414.105 386.558 415.205 386.498 416.29C386.498 421.446 386.498 426.529 386.498 431.389V463.696H386.528Z" fill="#CFEBF8"/>
<path d="M395.06 413.035H390.824H386.587C386.201 413.035 385.904 413.466 385.904 414.001V415.339C385.904 415.874 386.216 416.305 386.587 416.305H390.824H395.06C395.447 416.305 395.744 415.874 395.744 415.339V414.001C395.759 413.466 395.447 413.035 395.06 413.035Z" fill="#236A7E"/>
<path d="M395.729 369.448H395.016V366.877C395.016 366.401 394.689 366 394.287 366H390.824H387.36C386.959 366 386.632 366.386 386.632 366.877V369.448H385.918C385.517 369.448 385.19 369.834 385.19 370.325V372.034C385.19 372.509 385.517 372.91 385.918 372.91H390.794C390.809 372.91 390.809 372.896 390.809 372.896C390.809 372.91 390.824 372.91 390.824 372.91H395.699C396.101 372.91 396.428 372.524 396.428 372.034V370.325C396.458 369.849 396.131 369.448 395.729 369.448Z" fill="#1E506A"/>
<path d="M392.385 483.283C391.775 485.824 391.285 487.415 391.285 487.638C391.225 487.415 390.735 485.824 390.125 483.283H392.385Z" fill="#6D6A6A"/>
<path d="M386.662 464.662H395.06C395.194 464.662 395.313 464.558 395.313 464.41V430.467C395.313 430.334 395.209 430.215 395.06 430.215H386.662C386.528 430.215 386.409 430.319 386.409 430.467V464.41C386.424 464.558 386.528 464.662 386.662 464.662Z" fill="#8BB4BF"/>
</svg>
