<svg width="122" height="178" viewBox="0 0 122 178" fill="none" xmlns="http://www.w3.org/2000/svg">
<path d="M121.053 18.1662H0.18576V177.536H121.053V18.1662Z" fill="#003763"/>
<path d="M105.697 147.799V141.617V41.0224H15.5264V156.641H95.5L105.697 147.799Z" fill="white"/>
<path d="M28.9198 58.0086H92.3041" stroke="#6D6A6A" stroke-width="0.25" stroke-miterlimit="10"/>
<path d="M28.9198 68.456H92.3041" stroke="#6D6A6A" stroke-width="0.25" stroke-miterlimit="10"/>
<path d="M28.9198 78.9181H92.3041" stroke="#6D6A6A" stroke-width="0.25" stroke-miterlimit="10"/>
<path d="M28.9198 89.3654H92.3041" stroke="#6D6A6A" stroke-width="0.25" stroke-miterlimit="10"/>
<path d="M28.9198 99.8127H92.3041" stroke="#6D6A6A" stroke-width="0.25" stroke-miterlimit="10"/>
<path d="M28.9198 110.26H92.3041" stroke="#6D6A6A" stroke-width="0.25" stroke-miterlimit="10"/>
<path d="M28.9198 120.707H92.3041" stroke="#6D6A6A" stroke-width="0.25" stroke-miterlimit="10"/>
<path d="M28.9198 131.169H92.3041" stroke="#6D6A6A" stroke-width="0.25" stroke-miterlimit="10"/>
<path d="M28.9198 141.617H92.3041" stroke="#6D6A6A" stroke-width="0.25" stroke-miterlimit="10"/>
<path d="M105.697 147.799H95.5V156.641" fill="#8EA1B4"/>
<path d="M38.7901 12.0435V17.973H41.7929V24.2889H79.431V17.973H82.4337V12.0435H38.7901Z" fill="#A1AAB3"/>
<path d="M46.8915 18.6863H74.7485" stroke="#6D6A6A" stroke-width="0.25" stroke-miterlimit="10"/>
<path d="M97.8636 18.6863H102.1V8.84833H98.7257C98.25 8.84833 97.8636 9.23471 97.8636 9.71027V18.6863Z" fill="#6D6A6A"/>
<path d="M101.714 97.8659C102.204 105.49 103.616 112.385 104.716 116.814C104.776 117.037 104.835 117.319 104.895 117.542C105.504 120.083 105.995 121.673 106.054 121.896C106.054 121.673 106.545 120.083 107.154 117.542C108.254 113.188 109.86 105.935 110.35 97.8065C110.529 95.4881 110.603 93.1549 110.529 90.7623C110.41 85.8284 110.35 76.466 110.35 65.6472C110.35 60.7876 110.35 55.6309 110.35 50.4741V47.2789V47.2046C110.41 36.3858 110.41 25.7899 110.469 18.2405C110.529 11.5679 110.529 7.21361 110.529 7.065H105.98H101.505V8.80374C101.505 10.6911 101.565 14.0348 101.565 18.2405C101.565 18.3891 101.565 18.5377 101.565 18.6715C101.624 26.2209 101.684 36.5939 101.684 47.1898C101.743 48.2746 101.743 49.3743 101.684 50.4592C101.684 55.616 101.684 60.6985 101.684 65.558V97.8659H101.714Z" fill="#6D6A6A"/>
<path d="M101.714 97.8659C102.204 105.49 103.616 112.385 104.716 116.814C104.776 117.037 104.835 117.319 104.895 117.542C105.504 120.083 105.995 121.673 106.054 121.896C106.054 121.673 106.545 120.083 107.154 117.542C108.254 113.188 109.86 105.935 110.35 97.8065C110.529 95.4881 110.603 93.1549 110.529 90.7623C110.41 85.8284 110.35 76.466 110.35 65.6472C110.35 60.7876 110.35 55.6309 110.35 50.4741V47.2789V47.2046C110.41 36.3858 110.41 25.7899 110.469 18.2405C110.529 11.5679 110.529 7.21361 110.529 7.065H105.98H101.505V8.80374C101.505 10.6911 101.565 14.0348 101.565 18.2405C101.565 18.3891 101.565 18.5377 101.565 18.6715C101.624 26.2209 101.684 36.5939 101.684 47.1898C101.743 48.2746 101.743 49.3743 101.684 50.4592C101.684 55.616 101.684 60.6985 101.684 65.558V97.8659H101.714Z" fill="#6D6A6A"/>
<path d="M110.246 47.2046H106.01H101.773C101.387 47.2046 101.089 47.6356 101.089 48.1706V49.5081C101.089 50.0431 101.401 50.4741 101.773 50.4741H106.01H110.246C110.633 50.4741 110.93 50.0431 110.93 49.5081V48.1706C110.945 47.6356 110.633 47.2046 110.246 47.2046Z" fill="#6D6A6A"/>
<path d="M110.246 47.2046H106.01H101.773C101.387 47.2046 101.089 47.6356 101.089 48.1706V49.5081C101.089 50.0431 101.401 50.4741 101.773 50.4741H106.01H110.246C110.633 50.4741 110.93 50.0431 110.93 49.5081V48.1706C110.945 47.6356 110.633 47.2046 110.246 47.2046Z" fill="#6D6A6A"/>
<path d="M110.915 3.61721H110.201V1.04626C110.201 0.570705 109.874 0.169462 109.473 0.169462H106.01H102.546C102.145 0.169462 101.818 0.555844 101.818 1.04626V3.61721H101.104C100.703 3.61721 100.376 4.00361 100.376 4.49403V6.20304C100.376 6.67859 100.703 7.07983 101.104 7.07983H105.98C105.995 7.07983 105.995 7.06498 105.995 7.06498C105.995 7.07984 106.01 7.07983 106.01 7.07983H110.885C111.287 7.07983 111.614 6.69345 111.614 6.20304V4.49403C111.643 4.01847 111.316 3.61721 110.915 3.61721Z" fill="#6D6A6A"/>
<path d="M110.915 3.61721H110.201V1.04626C110.201 0.570705 109.874 0.169462 109.473 0.169462H106.01H102.546C102.145 0.169462 101.818 0.555844 101.818 1.04626V3.61721H101.104C100.703 3.61721 100.376 4.00361 100.376 4.49403V6.20304C100.376 6.67859 100.703 7.07983 101.104 7.07983H105.98C105.995 7.07983 105.995 7.06498 105.995 7.06498C105.995 7.07984 106.01 7.07983 106.01 7.07983H110.885C111.287 7.07983 111.614 6.69345 111.614 6.20304V4.49403C111.643 4.01847 111.316 3.61721 110.915 3.61721Z" fill="#6D6A6A"/>
<path d="M97.8636 18.6863H102.1V8.84833H98.7257C98.25 8.84833 97.8636 9.23471 97.8636 9.71027V18.6863Z" fill="#1E506A"/>
<path d="M101.714 97.8659C102.204 105.49 103.616 112.385 104.716 116.814C104.776 117.037 104.835 117.319 104.895 117.542C105.504 120.083 105.995 121.673 106.054 121.896C106.054 121.673 106.545 120.083 107.154 117.542C108.254 113.188 109.86 105.935 110.35 97.8065C110.529 95.4881 110.603 93.1549 110.529 90.7623C110.41 85.8284 110.35 76.466 110.35 65.6472C110.35 60.7876 110.35 55.6309 110.35 50.4741V47.2789V47.2046C110.41 36.3858 110.41 25.7899 110.469 18.2405C110.529 11.5679 110.529 7.21361 110.529 7.065H105.98H101.505V8.80374C101.505 10.6911 101.565 14.0348 101.565 18.2405C101.565 18.3891 101.565 18.5377 101.565 18.6715C101.624 26.2209 101.684 36.5939 101.684 47.1898C101.743 48.2746 101.743 49.3743 101.684 50.4592C101.684 55.616 101.684 60.6985 101.684 65.558V97.8659H101.714Z" fill="#CFEBF8"/>
<path d="M110.246 47.2046H106.01H101.773C101.387 47.2046 101.089 47.6356 101.089 48.1706V49.5081C101.089 50.0431 101.401 50.4741 101.773 50.4741H106.01H110.246C110.633 50.4741 110.93 50.0431 110.93 49.5081V48.1706C110.945 47.6356 110.633 47.2046 110.246 47.2046Z" fill="#236A7E"/>
<path d="M110.915 3.61721H110.201V1.04626C110.201 0.570705 109.874 0.169462 109.473 0.169462H106.01H102.546C102.145 0.169462 101.818 0.555844 101.818 1.04626V3.61721H101.104C100.703 3.61721 100.376 4.00361 100.376 4.49403V6.20304C100.376 6.67859 100.703 7.07983 101.104 7.07983H105.98C105.995 7.07983 105.995 7.06498 105.995 7.06498C105.995 7.07984 106.01 7.07983 106.01 7.07983H110.885C111.287 7.07983 111.614 6.69345 111.614 6.20304V4.49403C111.643 4.01847 111.316 3.61721 110.915 3.61721Z" fill="#1E506A"/>
<path d="M107.57 117.453C106.961 119.994 106.47 121.584 106.47 121.807C106.411 121.584 105.92 119.994 105.311 117.453H107.57Z" fill="#6D6A6A"/>
<path d="M101.847 98.8319H110.246C110.38 98.8319 110.499 98.7279 110.499 98.5793V64.6367C110.499 64.5029 110.395 64.384 110.246 64.384H101.847C101.714 64.384 101.595 64.488 101.595 64.6367V98.5793C101.61 98.7279 101.714 98.8319 101.847 98.8319Z" fill="#8BB4BF"/>
</svg>
