<svg width="147" height="188" viewBox="0 0 147 188" fill="none" xmlns="http://www.w3.org/2000/svg">
<path d="M117.752 69.757C113.595 48.3543 113.948 6.60494 73.8615 5.05606H73.791C73.7206 5.05606 73.6501 5.05606 73.5797 5.05606V5.12645C33.423 6.67533 33.3525 48.4247 29.1959 69.8274C25.0394 91.3005 12.4992 178.249 12.4992 178.249L73.3683 147.905L134.449 178.249C134.449 178.108 121.979 91.1596 117.752 69.757Z" fill="#215985"/>
<path d="M44.6951 8.85786L55.0513 31.4574C55.0513 31.4574 62.9417 26.7404 76.1864 26.7404C89.4311 26.7404 92.7422 31.4574 92.7422 31.4574L102.253 8.85786C102.253 8.85786 76.1864 -8.95424 44.6951 8.85786Z" fill="#FFF8F3"/>
<path d="M81.3996 14.1381H75.5522V8.29465H71.3957V14.1381H65.4778V18.292H71.3957V24.1355H75.5522V18.292H81.3996V14.1381Z" fill="#052E69"/>
<path d="M130.856 131.149C111.271 118.899 73.5092 112.844 73.5092 112.844C73.5092 112.844 35.6774 118.899 16.1626 131.149C-3.4226 143.399 1.15668 187.824 1.15668 187.824H73.5092H145.862C145.791 187.753 150.371 143.329 130.856 131.149Z" fill="#FEFFFF"/>
<path d="M73.4387 146.426C73.4387 146.426 47.372 129.67 47.372 123.052C47.372 116.435 55.192 114.956 55.192 114.956L57.7987 97.7776L73.4387 102.776V146.426Z" fill="#BECFD1"/>
<path d="M73.3683 146.426C73.3683 146.426 99.4349 129.67 99.4349 123.052C99.4349 116.435 91.6149 114.956 91.6149 114.956L89.0082 97.7776L73.3683 102.776V146.426Z" fill="white"/>
<path d="M108.03 75.3893C108.03 75.3893 107.819 80.5287 104.578 80.5287C101.408 80.5287 93.4467 109.605 73.6501 110.38V110.45H73.4388C73.3683 110.45 73.3683 110.45 73.2979 110.45H72.8752V110.38C53.2195 109.605 45.3995 80.5287 42.2292 80.5287C38.9885 80.5287 38.8476 75.3893 38.8476 75.3893C38.8476 75.3893 37.2977 65.6736 39.2703 62.3646C41.3134 59.126 43.4973 63.8431 44.1314 63.8431C44.1314 36.3153 69.0004 38.005 73.2979 38.4978C73.3683 38.4978 73.3683 38.4978 73.4388 38.4978C78.018 38.005 102.605 36.5265 102.605 63.8431C103.31 63.8431 105.494 59.126 107.537 62.3646C109.58 65.6736 108.03 75.3893 108.03 75.3893Z" fill="white"/>
<path d="M73.4388 38.4978V110.45C73.3683 110.45 73.3683 110.45 73.2979 110.45H72.8752V110.38C53.2195 109.605 45.3995 80.5287 42.2292 80.5287C38.9885 80.5287 38.8476 75.3893 38.8476 75.3893C38.8476 75.3893 37.2977 65.6736 39.2703 62.3646C41.3134 59.126 43.4973 63.8431 44.1314 63.8431C44.1314 36.3153 69.0004 38.005 73.2979 38.4978C73.3683 38.4978 73.3683 38.4978 73.4388 38.4978Z" fill="#CEE3E9"/>
</svg>
