<svg width="467" height="699" viewBox="0 0 467 699" fill="none" xmlns="http://www.w3.org/2000/svg">
<path d="M222.529 4.24011L11.4787 142.605C5.00862 146.872 1 154.616 1 163.071V537.233C1 545.688 5.00862 553.511 11.549 557.778L222.529 694.8C229.069 699.067 237.157 699.067 243.697 694.8L455.521 556.356C461.991 552.089 466 544.345 466 535.89V161.807C466 153.352 461.991 145.529 455.451 141.262L243.697 4.16109C237.157 -0.106012 229.069 -0.0269909 222.529 4.24011Z" fill="#35B4B7" stroke="white" stroke-miterlimit="10"/>
<path d="M375.284 497H93.3018C93.3018 497 92.6228 481.529 93.3018 422.556C93.9808 363.443 151.611 344.803 174.951 333.886C176.479 333.066 177.978 332.217 179.648 330.973C181.317 329.728 183.099 328.342 184.91 326.815C189.069 323.081 193.199 318.528 197.358 313.55C197.5 313.267 197.783 313.125 197.924 312.984C208.562 300.822 220.02 312.164 227.347 322.94C230.516 327.494 232.864 331.906 234.109 334.395C235.495 331.765 237.985 327.069 241.436 322.233C248.622 311.739 259.826 301.105 270.181 312.843C270.464 312.984 270.605 313.267 270.86 313.521C275.018 318.499 279.149 323.053 283.308 326.504C285.09 328.286 286.901 329.672 288.683 330.916C290.352 332.161 291.852 332.981 293.38 333.829C316.862 344.747 374.633 363.386 375.312 422.5C375.821 481.529 375.284 497 375.284 497Z" fill="white"/>
<path d="M283.251 326.532L237.108 380.526L234.194 383.835L233.911 384.26L231.28 381.233L184.853 326.815C189.012 323.081 193.143 318.527 197.302 313.549C197.443 313.267 197.726 313.125 197.867 312.984C201.998 317 210.57 321.695 227.291 322.94C228.535 323.081 229.922 323.223 231.308 323.223C231.874 323.364 232.411 323.364 233.09 323.364C234.335 323.223 235.863 322.544 237.108 322.544C238.636 322.402 240.022 322.402 241.38 322.261C257.365 320.875 265.795 316.548 270.181 312.814C274.566 318.075 278.923 322.911 283.251 326.532Z" fill="#BACDCF"/>
<path d="M235.014 343.078L234.222 163.446C234.222 163.446 294.172 157.987 294.879 188.053C295.586 218.119 314.287 339.797 235.014 343.078Z" fill="#FAFFFF"/>
<path d="M293.408 240.181C293.408 240.181 293.408 230.196 293.408 219.053C293.408 207.909 282.77 183.839 265.003 180.303C247.264 176.768 250.801 156.828 250.801 156.828C250.801 156.828 284.524 145.429 295.784 169.046C307.044 192.664 302.292 244.763 302.292 244.763L293.408 240.181Z" fill="#0B6983"/>
<path d="M302.744 238.144C312.816 231.469 308.997 244.819 308.997 260.913C308.997 279.835 286.703 296.975 286.703 296.975C286.703 296.975 277.225 260.913 295.813 243.801C296.379 243.235 297.058 242.755 297.51 242.302L302.744 238.144Z" fill="#FAFFFF"/>
<path d="M235.014 343.078L235.269 163.446C235.269 163.446 176.055 157.987 175.376 188.053C174.697 218.119 156.76 339.797 235.014 343.078Z" fill="#CFE3E5"/>
<path d="M266.418 164.323C266.418 164.323 281.809 181.944 265.23 184.857C248.651 187.799 214.927 177.22 195.406 192.494C175.885 207.767 179.421 218.317 179.421 237.692L174.102 244.734H165.219C165.219 244.734 165.219 214.81 165.219 197.783C165.219 180.756 168.19 143.789 227.941 143.789C227.941 143.789 275.867 139.433 263.447 168.311C251.027 197.189 266.418 164.323 266.418 164.323Z" fill="#0F3B62"/>
<path d="M183.467 296.975C183.467 296.975 161.456 279.892 161.456 260.913C161.456 241.934 156.166 226.746 174.499 243.829C192.831 260.913 183.467 296.975 183.467 296.975Z" fill="#CFE3E5"/>
<path d="M302.207 90.0207V190.712C302.207 190.712 260.788 182.425 233.43 182.142H231.761C204.403 182.142 166.266 190.712 166.266 190.712V91.2652C166.266 91.2652 179.676 78 230.374 78H233.402C282.063 78.4243 302.207 90.0207 302.207 90.0207Z" fill="white"/>
<path d="M235.297 78V182.142H233.6C205.478 182.142 166.294 190.712 166.294 190.712V91.2652C166.294 91.2652 180.072 78 232.185 78H235.297Z" fill="#D0E8EA"/>
<path d="M241.804 122.349V107.331H225.112V122.349H210.089V139.037H225.112V154.056H241.804V139.037H256.827V122.349H241.804Z" fill="#0D3760"/>
<path d="M405.867 383.997H285V543.366H405.867V383.997Z" fill="#003763"/>
<path d="M390.512 513.63V507.447V406.853H300.341V522.472H380.314L390.512 513.63Z" fill="white"/>
<path d="M313.734 423.839H377.118" stroke="#6D6A6A" stroke-width="0.25" stroke-miterlimit="10"/>
<path d="M313.734 434.287H377.118" stroke="#6D6A6A" stroke-width="0.25" stroke-miterlimit="10"/>
<path d="M313.734 444.749H377.118" stroke="#6D6A6A" stroke-width="0.25" stroke-miterlimit="10"/>
<path d="M313.734 455.196H377.118" stroke="#6D6A6A" stroke-width="0.25" stroke-miterlimit="10"/>
<path d="M313.734 465.643H377.118" stroke="#6D6A6A" stroke-width="0.25" stroke-miterlimit="10"/>
<path d="M313.734 476.091H377.118" stroke="#6D6A6A" stroke-width="0.25" stroke-miterlimit="10"/>
<path d="M313.734 486.538H377.118" stroke="#6D6A6A" stroke-width="0.25" stroke-miterlimit="10"/>
<path d="M313.734 497H377.118" stroke="#6D6A6A" stroke-width="0.25" stroke-miterlimit="10"/>
<path d="M313.734 507.447H377.118" stroke="#6D6A6A" stroke-width="0.25" stroke-miterlimit="10"/>
<path d="M390.512 513.63H380.314V522.472" fill="#8EA1B4"/>
<path d="M323.604 377.874V383.804H326.607V390.12H364.245V383.804H367.248V377.874H323.604Z" fill="#A1AAB3"/>
<path d="M331.706 384.517H359.563" stroke="#6D6A6A" stroke-width="0.25" stroke-miterlimit="10"/>
<path d="M382.678 384.517H386.914V374.679H383.54C383.064 374.679 382.678 375.065 382.678 375.541V384.517Z" fill="#6D6A6A"/>
<path d="M386.528 463.696C387.018 471.32 388.431 478.216 389.531 482.644C389.59 482.867 389.649 483.15 389.709 483.372C390.318 485.914 390.809 487.504 390.868 487.727C390.868 487.504 391.359 485.914 391.968 483.372C393.068 479.018 394.674 471.766 395.164 463.637C395.343 461.319 395.417 458.985 395.343 456.593C395.224 451.659 395.164 442.297 395.164 431.478C395.164 426.618 395.164 421.461 395.164 416.305V413.109V413.035C395.224 402.216 395.224 391.62 395.283 384.071C395.343 377.398 395.343 373.044 395.343 372.896H390.794H386.32V374.634C386.32 376.522 386.379 379.865 386.379 384.071C386.379 384.22 386.379 384.368 386.379 384.502C386.439 392.051 386.498 402.424 386.498 413.02C386.558 414.105 386.558 415.205 386.498 416.29C386.498 421.446 386.498 426.529 386.498 431.389V463.696H386.528Z" fill="#6D6A6A"/>
<path d="M386.528 463.696C387.018 471.32 388.431 478.216 389.531 482.644C389.59 482.867 389.649 483.15 389.709 483.372C390.318 485.914 390.809 487.504 390.868 487.727C390.868 487.504 391.359 485.914 391.968 483.372C393.068 479.018 394.674 471.766 395.164 463.637C395.343 461.319 395.417 458.985 395.343 456.593C395.224 451.659 395.164 442.297 395.164 431.478C395.164 426.618 395.164 421.461 395.164 416.305V413.109V413.035C395.224 402.216 395.224 391.62 395.283 384.071C395.343 377.398 395.343 373.044 395.343 372.896H390.794H386.32V374.634C386.32 376.522 386.379 379.865 386.379 384.071C386.379 384.22 386.379 384.368 386.379 384.502C386.439 392.051 386.498 402.424 386.498 413.02C386.558 414.105 386.558 415.205 386.498 416.29C386.498 421.446 386.498 426.529 386.498 431.389V463.696H386.528Z" fill="#6D6A6A"/>
<path d="M395.06 413.035H390.824H386.587C386.201 413.035 385.904 413.466 385.904 414.001V415.339C385.904 415.874 386.216 416.305 386.587 416.305H390.824H395.06C395.447 416.305 395.744 415.874 395.744 415.339V414.001C395.759 413.466 395.447 413.035 395.06 413.035Z" fill="#6D6A6A"/>
<path d="M395.06 413.035H390.824H386.587C386.201 413.035 385.904 413.466 385.904 414.001V415.339C385.904 415.874 386.216 416.305 386.587 416.305H390.824H395.06C395.447 416.305 395.744 415.874 395.744 415.339V414.001C395.759 413.466 395.447 413.035 395.06 413.035Z" fill="#6D6A6A"/>
<path d="M395.729 369.448H395.016V366.877C395.016 366.401 394.689 366 394.287 366H390.824H387.36C386.959 366 386.632 366.386 386.632 366.877V369.448H385.918C385.517 369.448 385.19 369.834 385.19 370.325V372.034C385.19 372.509 385.517 372.91 385.918 372.91H390.794C390.809 372.91 390.809 372.896 390.809 372.896C390.809 372.91 390.824 372.91 390.824 372.91H395.699C396.101 372.91 396.428 372.524 396.428 372.034V370.325C396.458 369.849 396.131 369.448 395.729 369.448Z" fill="#6D6A6A"/>
<path d="M395.729 369.448H395.016V366.877C395.016 366.401 394.689 366 394.287 366H390.824H387.36C386.959 366 386.632 366.386 386.632 366.877V369.448H385.918C385.517 369.448 385.19 369.834 385.19 370.325V372.034C385.19 372.509 385.517 372.91 385.918 372.91H390.794C390.809 372.91 390.809 372.896 390.809 372.896C390.809 372.91 390.824 372.91 390.824 372.91H395.699C396.101 372.91 396.428 372.524 396.428 372.034V370.325C396.458 369.849 396.131 369.448 395.729 369.448Z" fill="#6D6A6A"/>
<path d="M382.678 384.517H386.914V374.679H383.54C383.064 374.679 382.678 375.065 382.678 375.541V384.517Z" fill="#1E506A"/>
<path d="M386.528 463.696C387.018 471.32 388.431 478.216 389.531 482.644C389.59 482.867 389.649 483.15 389.709 483.372C390.318 485.914 390.809 487.504 390.868 487.727C390.868 487.504 391.359 485.914 391.968 483.372C393.068 479.018 394.674 471.766 395.164 463.637C395.343 461.319 395.417 458.985 395.343 456.593C395.224 451.659 395.164 442.297 395.164 431.478C395.164 426.618 395.164 421.461 395.164 416.305V413.109V413.035C395.224 402.216 395.224 391.62 395.283 384.071C395.343 377.398 395.343 373.044 395.343 372.896H390.794H386.32V374.634C386.32 376.522 386.379 379.865 386.379 384.071C386.379 384.22 386.379 384.368 386.379 384.502C386.439 392.051 386.498 402.424 386.498 413.02C386.558 414.105 386.558 415.205 386.498 416.29C386.498 421.446 386.498 426.529 386.498 431.389V463.696H386.528Z" fill="#CFEBF8"/>
<path d="M395.06 413.035H390.824H386.587C386.201 413.035 385.904 413.466 385.904 414.001V415.339C385.904 415.874 386.216 416.305 386.587 416.305H390.824H395.06C395.447 416.305 395.744 415.874 395.744 415.339V414.001C395.759 413.466 395.447 413.035 395.06 413.035Z" fill="#236A7E"/>
<path d="M395.729 369.448H395.016V366.877C395.016 366.401 394.689 366 394.287 366H390.824H387.36C386.959 366 386.632 366.386 386.632 366.877V369.448H385.918C385.517 369.448 385.19 369.834 385.19 370.325V372.034C385.19 372.509 385.517 372.91 385.918 372.91H390.794C390.809 372.91 390.809 372.896 390.809 372.896C390.809 372.91 390.824 372.91 390.824 372.91H395.699C396.101 372.91 396.428 372.524 396.428 372.034V370.325C396.458 369.849 396.131 369.448 395.729 369.448Z" fill="#1E506A"/>
<path d="M392.385 483.283C391.775 485.824 391.285 487.415 391.285 487.638C391.225 487.415 390.735 485.824 390.125 483.283H392.385Z" fill="#6D6A6A"/>
<path d="M386.662 464.662H395.06C395.194 464.662 395.313 464.558 395.313 464.41V430.467C395.313 430.334 395.209 430.215 395.06 430.215H386.662C386.528 430.215 386.409 430.319 386.409 430.467V464.41C386.424 464.558 386.528 464.662 386.662 464.662Z" fill="#8BB4BF"/>
</svg>
